<?xml version="1.0" standalone="no"?>
<!DOCTYPE svg PUBLIC "-//W3C//DTD SVG 20010904//EN"
 "http://www.w3.org/TR/2001/REC-SVG-20010904/DTD/svg10.dtd">
<svg version="1.0" xmlns="http://www.w3.org/2000/svg"
 width="256.000000pt" height="256.000000pt" viewBox="0 0 256.000000 256.000000"
 preserveAspectRatio="xMidYMid meet">
<metadata>
Created by potrace 1.11, written by Peter Selinger 2001-2013
</metadata>
<g transform="translate(0.000000,256.000000) scale(0.100000,-0.100000)"
fill="#000000" stroke="none">
<path d="M0 1280 l0 -1280 1280 0 1280 0 0 1280 0 1280 -1280 0 -1280 0 0
-1280z m1808 445 c35 -10 66 -23 68 -30 3 -6 -2 -27 -10 -47 l-15 -36 -63 20
c-87 28 -212 29 -258 3 -54 -32 -75 -69 -73 -127 2 -85 37 -115 208 -184 186
-74 240 -132 239 -259 0 -112 -40 -171 -145 -219 -71 -33 -178 -43 -289 -27
-121 18 -130 24 -130 83 0 26 1 48 3 48 1 0 29 -9 63 -19 144 -46 287 -36 352
23 30 28 36 40 40 88 8 99 -28 135 -204 204 -171 67 -231 127 -241 243 -12
125 50 210 179 246 66 19 190 14 276 -10z m-538 -40 l0 -45 -145 0 -145 0 0
-410 0 -410 -55 0 -55 0 0 410 0 410 -145 0 -145 0 0 45 0 45 345 0 345 0 0
-45z"/>
</g>
</svg>
